<?xml version="1.0" encoding="utf-8"?>
<!-- Generator: Adobe Illustrator 16.0.3, SVG Export Plug-In . SVG Version: 6.00 Build 0)  -->
<!DOCTYPE svg PUBLIC "-//W3C//DTD SVG 1.1//EN" "http://www.w3.org/Graphics/SVG/1.1/DTD/svg11.dtd">
<svg version="1.1" id="Layer_1" xmlns="http://www.w3.org/2000/svg" xmlns:xlink="http://www.w3.org/1999/xlink" x="0px" y="0px"
	 width="595.279px" height="841.891px" viewBox="0 0 595.279 841.891" enable-background="new 0 0 595.279 841.891"
	 xml:space="preserve">
<g>
	<g>
		<g>
			<path fill="#FFFFFF" stroke="#FFFFFF" stroke-miterlimit="10" d="M436.521,490.395c0-5.477-4.445-9.922-9.921-9.922h-59.528
				c-5.477,0-9.921,4.445-9.921,9.922c0,5.476,4.444,9.921,9.921,9.921H426.6C432.075,500.316,436.521,495.871,436.521,490.395z"/>
			<path fill="#FFFFFF" stroke="#FFFFFF" stroke-miterlimit="10" d="M396.834,232.44v-49.607c0-5.476-4.444-9.921-9.921-9.921
				s-9.921,4.445-9.921,9.921v49.607c0,27.353,22.253,49.607,49.607,49.607h89.292v188.505c0,5.477,4.444,9.921,9.921,9.921
				c5.476,0,9.921-4.444,9.921-9.921V272.125c0-5.476-4.445-9.921-9.921-9.921H426.6C410.189,262.204,396.834,248.85,396.834,232.44
				z"/>
			<path fill="#FFFFFF" stroke="#FFFFFF" stroke-miterlimit="10" d="M426.598,361.417h-79.371c-5.476,0-9.921,4.445-9.921,9.921
				s4.445,9.921,9.921,9.921h79.371c5.477,0,9.921-4.445,9.921-9.921C436.521,365.862,432.075,361.417,426.598,361.417z"/>
			<path fill="#FFFFFF" stroke="#FFFFFF" stroke-miterlimit="10" d="M317.464,371.338c0-5.476-4.444-9.921-9.921-9.921h-59.527
				c-5.477,0-9.921,4.445-9.921,9.921s4.444,9.921,9.921,9.921h59.527C313.02,381.26,317.464,376.815,317.464,371.338z"/>
			<path fill="#FFFFFF" stroke="#FFFFFF" stroke-miterlimit="10" d="M248.015,420.945c-5.477,0-9.922,4.444-9.922,9.921
				c0,5.476,4.445,9.921,9.922,9.921h19.843c5.476,0,9.921-4.445,9.921-9.921c0-5.477-4.445-9.921-9.921-9.921H248.015
				L248.015,420.945z"/>
			<path fill="#FFFFFF" stroke="#FFFFFF" stroke-miterlimit="10" d="M248.015,321.732h99.212c5.477,0,9.921-4.445,9.921-9.921
				s-4.444-9.921-9.921-9.921h-99.212c-5.477,0-9.922,4.445-9.922,9.921S242.538,321.732,248.015,321.732z"/>
			<path fill="#FFFFFF" stroke="#FFFFFF" stroke-miterlimit="10" d="M307.542,440.788h99.213c5.477,0,9.921-4.444,9.921-9.921
				s-4.444-9.921-9.921-9.921h-99.213c-5.476,0-9.921,4.444-9.921,9.921S302.067,440.788,307.542,440.788z"/>
			<path fill="#FFFFFF" stroke="#FFFFFF" stroke-miterlimit="10" d="M367.071,540.001c-5.477,0-9.921,4.445-9.921,9.921
				c0,5.477,4.444,9.921,9.921,9.921h19.843c5.477,0,9.921-4.444,9.921-9.921c0-5.476-4.444-9.921-9.921-9.921H367.071z"/>
			<path fill="#FFFFFF" stroke="#FFFFFF" stroke-miterlimit="10" d="M327.385,480.473h-79.37c-5.477,0-9.921,4.445-9.921,9.922
				c0,5.476,4.444,9.921,9.921,9.921h79.37c5.477,0,9.921-4.445,9.921-9.921C337.306,484.918,332.862,480.473,327.385,480.473z"/>
			<path fill="#FFFFFF" stroke="#FFFFFF" stroke-miterlimit="10" d="M327.385,540.001h-79.37c-5.477,0-9.921,4.445-9.921,9.921
				c0,5.477,4.444,9.921,9.921,9.921h79.37c5.477,0,9.921-4.444,9.921-9.921C337.306,544.446,332.862,540.001,327.385,540.001z"/>
			<path fill="#FFFFFF" stroke="#FFFFFF" stroke-miterlimit="10" d="M563.602,531.976l-19.843-19.844
				c-15.249-15.249-38.485-15.219-53.714,0l-129.989,129.99c-1.855,1.855-2.906,4.386-2.906,7.015v59.527
				c0,5.477,4.444,9.921,9.921,9.921h59.527c2.629,0,5.159-1.051,7.015-2.906l129.989-129.99
				C579.407,569.884,579.407,547.79,563.602,531.976z M477.217,553.019l15.735,15.735l-86.197,86.197l-15.735-15.736
				L477.217,553.019z M376.992,698.742v-45.499l45.499,45.499H376.992z M436.521,684.714l-15.735-15.735l86.196-86.197
				l15.735,15.735L436.521,684.714z M549.573,571.66l-12.829,12.829l-45.499-45.5l12.829-12.828c7.837-7.828,17.779-7.868,25.656,0
				l19.843,19.843C557.6,554.04,557.6,563.633,549.573,571.66z"/>
			<path fill="#FFFFFF" stroke="#FFFFFF" stroke-miterlimit="10" d="M327.385,698.742H69.43c-16.409,0-29.764-13.354-29.764-29.764
				V172.912c0-16.41,13.354-29.764,29.764-29.764h313.376l96.306,96.306c3.879,3.88,10.15,3.88,14.029,0
				c3.88-3.878,3.88-10.15,0-14.028l-99.213-99.214c-1.855-1.865-4.386-2.907-7.015-2.907H69.43
				c-27.353,0-49.605,22.253-49.605,49.607v496.067c0,27.353,22.253,49.606,49.607,49.606h257.955c5.476,0,9.921-4.444,9.921-9.921
				C337.308,703.189,332.862,698.742,327.385,698.742z"/>
			<path fill="#FFFFFF" stroke="#FFFFFF" stroke-miterlimit="10" d="M327.385,599.529h-79.37c-5.477,0-9.921,4.444-9.921,9.921
				c0,5.476,4.444,9.921,9.921,9.921h79.37c5.477,0,9.921-4.445,9.921-9.921C337.306,603.974,332.862,599.529,327.385,599.529z"/>
			<path fill="#FFFFFF" stroke="#FFFFFF" stroke-miterlimit="10" d="M198.408,311.81c0-5.476-4.444-9.921-9.921-9.921h-59.528
				c-5.476,0-9.921,4.445-9.921,9.921v59.528c0,5.476,4.445,9.921,9.921,9.921h59.528c5.477,0,9.921-4.445,9.921-9.921V311.81z
				 M178.566,361.417H138.88v-39.685h39.686V361.417z"/>
			<path fill="#FFFFFF" stroke="#FFFFFF" stroke-miterlimit="10" d="M128.958,619.372h59.528c5.476,0,9.921-4.444,9.921-9.921
				v-59.528c0-5.476-4.445-9.921-9.921-9.921h-59.528c-5.476,0-9.921,4.445-9.921,9.921v59.528
				C119.037,614.928,123.483,619.372,128.958,619.372z M138.88,559.844h39.686v39.686H138.88V559.844L138.88,559.844z"/>
			<path fill="#FFFFFF" stroke="#FFFFFF" stroke-miterlimit="10" d="M141.787,497.408c1.864,1.865,4.395,2.907,7.014,2.907
				c0.328,0,0.646-0.01,0.982-0.051c2.957-0.287,5.625-1.895,7.272-4.365l39.686-59.528c3.035-4.563,1.806-10.726-2.749-13.761
				c-4.573-3.047-10.715-1.806-13.761,2.748l-32.969,49.458l-11.29-11.279c-3.879-3.88-10.15-3.88-14.029,0
				c-3.878,3.879-3.879,10.149,0,14.028L141.787,497.408z"/>
		</g>
	</g>
</g>
</svg>
